<svg xmlns="http://www.w3.org/2000/svg" width="900" height="500">
<rect width="100%" height="100%" fill="#07111F"/>
<text x="30" y="36" fill="#F4F8FF" font-family="sans-serif" font-size="22">Unsafe-candidate x–t proxy evidence map</text>
<text x="12" y="122.0" fill="#CBD5E1" font-family="sans-serif" font-size="12">route flow redistribution</text>
<rect x="220.0" y="70.0" width="31.5" height="79.0" fill="rgb(67,70,50)"/>
<rect x="252.5" y="70.0" width="31.5" height="79.0" fill="rgb(110,70,50)"/>
<rect x="285.0" y="70.0" width="31.5" height="79.0" fill="rgb(67,70,50)"/>
<rect x="317.5" y="70.0" width="31.5" height="79.0" fill="rgb(67,70,50)"/>
<rect x="350.0" y="70.0" width="31.5" height="79.0" fill="rgb(230,70,50)"/>
<rect x="382.5" y="70.0" width="31.5" height="79.0" fill="rgb(55,70,50)"/>
<rect x="415.0" y="70.0" width="31.5" height="79.0" fill="rgb(55,70,50)"/>
<rect x="447.5" y="70.0" width="31.5" height="79.0" fill="rgb(229,70,50)"/>
<rect x="480.0" y="70.0" width="31.5" height="79.0" fill="rgb(215,70,50)"/>
<rect x="512.5" y="70.0" width="31.5" height="79.0" fill="rgb(55,70,50)"/>
<rect x="545.0" y="70.0" width="31.5" height="79.0" fill="rgb(67,70,50)"/>
<rect x="577.5" y="70.0" width="31.5" height="79.0" fill="rgb(214,70,50)"/>
<rect x="610.0" y="70.0" width="31.5" height="79.0" fill="rgb(214,70,50)"/>
<rect x="642.5" y="70.0" width="31.5" height="79.0" fill="rgb(57,70,50)"/>
<rect x="675.0" y="70.0" width="31.5" height="79.0" fill="rgb(67,70,50)"/>
<rect x="707.5" y="70.0" width="31.5" height="79.0" fill="rgb(57,70,50)"/>
<rect x="740.0" y="70.0" width="31.5" height="79.0" fill="rgb(67,70,50)"/>
<rect x="772.5" y="70.0" width="31.5" height="79.0" fill="rgb(67,70,50)"/>
<rect x="805.0" y="70.0" width="31.5" height="79.0" fill="rgb(67,70,50)"/>
<rect x="837.5" y="70.0" width="31.5" height="79.0" fill="rgb(67,70,50)"/>
<text x="12" y="202.0" fill="#CBD5E1" font-family="sans-serif" font-size="12">conflict exposure</text>
<rect x="220.0" y="150.0" width="31.5" height="79.0" fill="rgb(76,70,50)"/>
<rect x="252.5" y="150.0" width="31.5" height="79.0" fill="rgb(121,70,50)"/>
<rect x="285.0" y="150.0" width="31.5" height="79.0" fill="rgb(76,70,50)"/>
<rect x="317.5" y="150.0" width="31.5" height="79.0" fill="rgb(76,70,50)"/>
<rect x="350.0" y="150.0" width="31.5" height="79.0" fill="rgb(230,70,50)"/>
<rect x="382.5" y="150.0" width="31.5" height="79.0" fill="rgb(63,70,50)"/>
<rect x="415.0" y="150.0" width="31.5" height="79.0" fill="rgb(63,70,50)"/>
<rect x="447.5" y="150.0" width="31.5" height="79.0" fill="rgb(229,70,50)"/>
<rect x="480.0" y="150.0" width="31.5" height="79.0" fill="rgb(63,70,50)"/>
<rect x="512.5" y="150.0" width="31.5" height="79.0" fill="rgb(63,70,50)"/>
<rect x="545.0" y="150.0" width="31.5" height="79.0" fill="rgb(76,70,50)"/>
<rect x="577.5" y="150.0" width="31.5" height="79.0" fill="rgb(63,70,50)"/>
<rect x="610.0" y="150.0" width="31.5" height="79.0" fill="rgb(63,70,50)"/>
<rect x="642.5" y="150.0" width="31.5" height="79.0" fill="rgb(58,70,50)"/>
<rect x="675.0" y="150.0" width="31.5" height="79.0" fill="rgb(76,70,50)"/>
<rect x="707.5" y="150.0" width="31.5" height="79.0" fill="rgb(57,70,50)"/>
<rect x="740.0" y="150.0" width="31.5" height="79.0" fill="rgb(88,70,50)"/>
<rect x="772.5" y="150.0" width="31.5" height="79.0" fill="rgb(88,70,50)"/>
<rect x="805.0" y="150.0" width="31.5" height="79.0" fill="rgb(88,70,50)"/>
<rect x="837.5" y="150.0" width="31.5" height="79.0" fill="rgb(88,70,50)"/>
<text x="12" y="282.0" fill="#CBD5E1" font-family="sans-serif" font-size="12">lane-change demand</text>
<rect x="220.0" y="230.0" width="31.5" height="79.0" fill="rgb(75,70,50)"/>
<rect x="252.5" y="230.0" width="31.5" height="79.0" fill="rgb(114,70,50)"/>
<rect x="285.0" y="230.0" width="31.5" height="79.0" fill="rgb(81,70,50)"/>
<rect x="317.5" y="230.0" width="31.5" height="79.0" fill="rgb(74,70,50)"/>
<rect x="350.0" y="230.0" width="31.5" height="79.0" fill="rgb(172,70,50)"/>
<rect x="382.5" y="230.0" width="31.5" height="79.0" fill="rgb(58,70,50)"/>
<rect x="415.0" y="230.0" width="31.5" height="79.0" fill="rgb(58,70,50)"/>
<rect x="447.5" y="230.0" width="31.5" height="79.0" fill="rgb(176,70,50)"/>
<rect x="480.0" y="230.0" width="31.5" height="79.0" fill="rgb(230,70,50)"/>
<rect x="512.5" y="230.0" width="31.5" height="79.0" fill="rgb(62,70,50)"/>
<rect x="545.0" y="230.0" width="31.5" height="79.0" fill="rgb(72,70,50)"/>
<rect x="577.5" y="230.0" width="31.5" height="79.0" fill="rgb(224,70,50)"/>
<rect x="610.0" y="230.0" width="31.5" height="79.0" fill="rgb(224,70,50)"/>
<rect x="642.5" y="230.0" width="31.5" height="79.0" fill="rgb(60,70,50)"/>
<rect x="675.0" y="230.0" width="31.5" height="79.0" fill="rgb(67,70,50)"/>
<rect x="707.5" y="230.0" width="31.5" height="79.0" fill="rgb(56,70,50)"/>
<rect x="740.0" y="230.0" width="31.5" height="79.0" fill="rgb(77,70,50)"/>
<rect x="772.5" y="230.0" width="31.5" height="79.0" fill="rgb(86,70,50)"/>
<rect x="805.0" y="230.0" width="31.5" height="79.0" fill="rgb(84,70,50)"/>
<rect x="837.5" y="230.0" width="31.5" height="79.0" fill="rgb(83,70,50)"/>
<text x="12" y="362.0" fill="#CBD5E1" font-family="sans-serif" font-size="12">bottleneck load</text>
<rect x="220.0" y="310.0" width="31.5" height="79.0" fill="rgb(72,70,50)"/>
<rect x="252.5" y="310.0" width="31.5" height="79.0" fill="rgb(121,70,50)"/>
<rect x="285.0" y="310.0" width="31.5" height="79.0" fill="rgb(72,70,50)"/>
<rect x="317.5" y="310.0" width="31.5" height="79.0" fill="rgb(72,70,50)"/>
<rect x="350.0" y="310.0" width="31.5" height="79.0" fill="rgb(230,70,50)"/>
<rect x="382.5" y="310.0" width="31.5" height="79.0" fill="rgb(63,70,50)"/>
<rect x="415.0" y="310.0" width="31.5" height="79.0" fill="rgb(63,70,50)"/>
<rect x="447.5" y="310.0" width="31.5" height="79.0" fill="rgb(229,70,50)"/>
<rect x="480.0" y="310.0" width="31.5" height="79.0" fill="rgb(103,70,50)"/>
<rect x="512.5" y="310.0" width="31.5" height="79.0" fill="rgb(63,70,50)"/>
<rect x="545.0" y="310.0" width="31.5" height="79.0" fill="rgb(72,70,50)"/>
<rect x="577.5" y="310.0" width="31.5" height="79.0" fill="rgb(102,70,50)"/>
<rect x="610.0" y="310.0" width="31.5" height="79.0" fill="rgb(102,70,50)"/>
<rect x="642.5" y="310.0" width="31.5" height="79.0" fill="rgb(56,70,50)"/>
<rect x="675.0" y="310.0" width="31.5" height="79.0" fill="rgb(72,70,50)"/>
<rect x="707.5" y="310.0" width="31.5" height="79.0" fill="rgb(55,70,50)"/>
<rect x="740.0" y="310.0" width="31.5" height="79.0" fill="rgb(72,70,50)"/>
<rect x="772.5" y="310.0" width="31.5" height="79.0" fill="rgb(72,70,50)"/>
<rect x="805.0" y="310.0" width="31.5" height="79.0" fill="rgb(72,70,50)"/>
<rect x="837.5" y="310.0" width="31.5" height="79.0" fill="rgb(72,70,50)"/>
<text x="12" y="442.0" fill="#CBD5E1" font-family="sans-serif" font-size="12">paired DRAC delta</text>
<rect x="220.0" y="390.0" width="31.5" height="79.0" fill="rgb(57,70,50)"/>
<rect x="252.5" y="390.0" width="31.5" height="79.0" fill="rgb(47,70,50)"/>
<rect x="285.0" y="390.0" width="31.5" height="79.0" fill="rgb(230,70,50)"/>
<rect x="317.5" y="390.0" width="31.5" height="79.0" fill="rgb(52,70,50)"/>
<rect x="350.0" y="390.0" width="31.5" height="79.0" fill="rgb(192,70,50)"/>
<rect x="382.5" y="390.0" width="31.5" height="79.0" fill="rgb(50,70,50)"/>
<rect x="415.0" y="390.0" width="31.5" height="79.0" fill="rgb(53,70,50)"/>
<rect x="447.5" y="390.0" width="31.5" height="79.0" fill="rgb(53,70,50)"/>
<rect x="480.0" y="390.0" width="31.5" height="79.0" fill="rgb(49,70,50)"/>
<rect x="512.5" y="390.0" width="31.5" height="79.0" fill="rgb(46,70,50)"/>
<rect x="545.0" y="390.0" width="31.5" height="79.0" fill="rgb(59,70,50)"/>
<rect x="577.5" y="390.0" width="31.5" height="79.0" fill="rgb(62,70,50)"/>
<rect x="610.0" y="390.0" width="31.5" height="79.0" fill="rgb(60,70,50)"/>
<rect x="642.5" y="390.0" width="31.5" height="79.0" fill="rgb(54,70,50)"/>
<rect x="675.0" y="390.0" width="31.5" height="79.0" fill="rgb(60,70,50)"/>
<rect x="707.5" y="390.0" width="31.5" height="79.0" fill="rgb(100,70,50)"/>
<rect x="740.0" y="390.0" width="31.5" height="79.0" fill="rgb(167,70,50)"/>
<rect x="772.5" y="390.0" width="31.5" height="79.0" fill="rgb(54,70,50)"/>
<rect x="805.0" y="390.0" width="31.5" height="79.0" fill="rgb(88,70,50)"/>
<rect x="837.5" y="390.0" width="31.5" height="79.0" fill="rgb(64,70,50)"/>
</svg>
